<?xml version="1.0" standalone="no"?>
<!DOCTYPE svg PUBLIC "-//W3C//DTD SVG 20010904//EN"
 "http://www.w3.org/TR/2001/REC-SVG-20010904/DTD/svg10.dtd">
<svg version="1.0" xmlns="http://www.w3.org/2000/svg"
 width="200.000000pt" height="200.000000pt" viewBox="0 0 200.000000 200.000000"
 preserveAspectRatio="xMidYMid meet">
<metadata>
Created by potrace 1.10, written by Peter Selinger 2001-2011
</metadata>
<g transform="translate(0.000000,200.000000) scale(0.050000,-0.050000)"
fill="#000000" stroke="none">
<path d="M1966 3939 c-8 -27 -22 -37 -46 -29 -47 15 -100 -8 -100 -43 0 -16 9
-24 20 -17 27 16 140 -52 140 -84 0 -38 10 -33 79 36 38 38 74 57 93 50 22 -8
29 -2 24 23 -5 25 -25 34 -70 32 -46 -2 -65 8 -72 35 -13 50 -55 48 -68 -3z"/>
<path d="M1704 3856 c-13 -13 -24 -36 -24 -50 0 -37 59 -32 73 5 17 43 -19 75
-49 45z"/>
<path d="M2248 3853 c-15 -39 6 -73 45 -73 19 0 28 15 23 43 -7 53 -51 72 -68
30z"/>
<path d="M1866 3795 c8 -19 19 -47 25 -62 8 -19 -9 -32 -48 -39 -73 -15 -102
-83 -55 -130 49 -50 92 1 45 53 -33 36 -33 39 0 51 54 21 103 -39 72 -88 -34
-53 -31 -80 7 -80 49 0 22 -45 -40 -66 -168 -56 -256 190 -96 266 85 40 80 60
-15 60 -43 0 -84 9 -91 20 -14 23 -110 27 -110 5 1 -8 23 -36 50 -62 39 -37
49 -66 47 -130 l-2 -83 -14 86 c-8 47 -30 101 -50 120 -34 32 -36 32 -26 -9
19 -82 -17 -94 -62 -21 -53 85 -148 131 -193 94 -39 -32 -38 -68 1 -101 47
-39 -6 -61 -97 -40 -72 16 -85 8 -76 -46 2 -10 -8 -31 -22 -48 -21 -25 -21
-33 -1 -40 14 -5 25 -21 25 -37 0 -16 13 -34 30 -41 17 -6 30 -19 30 -29 0 -9
-22 -7 -49 5 -106 49 -159 -96 -56 -152 81 -44 44 -37 -67 12 -90 40 -94 45
-54 63 54 24 83 159 45 206 -28 32 -115 31 -99 -2 6 -11 26 -18 45 -15 89 12
37 -91 -81 -163 -167 -101 -195 -138 -190 -250 4 -82 -4 -102 -58 -152 -34
-32 -73 -86 -88 -119 -15 -34 -27 -47 -27 -31 -1 40 66 140 123 184 39 30 42
39 16 56 -45 29 -63 24 -74 -20 -6 -22 -18 -40 -27 -40 -49 0 -162 -309 -120
-323 90 -31 48 -417 -46 -417 -50 0 -86 49 -52 71 10 6 19 2 19 -10 0 -32 54
-25 67 9 21 54 -60 77 -107 30 -51 -51 -50 -69 5 -114 78 -62 5 -189 -74 -128
-72 56 -171 40 -171 -28 0 -30 -15 -50 -45 -59 l-45 -13 44 -22 c24 -12 47
-40 50 -64 6 -45 39 -49 181 -22 74 15 164 -84 96 -106 -82 -28 -88 -127 -10
-157 45 -17 90 8 77 42 -14 36 -68 42 -68 7 0 -18 -6 -18 -25 1 -38 39 36 89
89 61 70 -38 82 -418 13 -418 -42 0 0 -124 83 -250 22 -33 48 -80 59 -105 22
-50 42 -56 76 -22 18 18 5 44 -56 110 -43 47 -78 102 -77 122 1 24 9 18 26
-20 13 -30 52 -84 87 -120 51 -53 63 -80 60 -145 -4 -106 44 -174 176 -249
117 -66 157 -116 128 -162 -17 -25 -22 -25 -38 1 -23 35 -74 -2 -52 -38 19
-31 82 -27 110 7 37 44 7 186 -44 214 -40 21 -38 23 24 49 83 35 92 35 62 -1
-51 -61 -18 -121 64 -119 57 2 75 -5 75 -30 -1 -24 -5 -26 -17 -6 -14 21 -20
21 -37 0 -36 -47 -47 -101 -26 -126 12 -14 19 -38 16 -53 -4 -18 17 -29 61
-33 l68 -7 -44 62 c-24 34 -40 77 -35 96 7 28 10 26 12 -7 5 -98 157 -184 256
-146 65 24 58 -9 -16 -70 -78 -67 -106 -66 -89 0 15 59 -22 59 -58 1 -16 -28
-13 -41 16 -63 59 -43 144 4 216 120 l37 60 0 -67 c0 -97 46 -70 70 42 27 124
47 138 29 21 -10 -66 -30 -107 -68 -140 -58 -50 -33 -82 49 -60 22 6 36 3 30
-5 -5 -9 9 -32 30 -51 44 -40 77 -2 53 60 -8 20 1 30 26 30 64 0 65 35 1 57
-123 43 -115 243 11 275 80 20 167 -25 117 -61 -33 -24 -34 -33 -10 -77 33
-61 16 -94 -49 -94 -57 0 -62 16 -16 50 36 26 22 70 -22 70 -43 0 -54 -62 -21
-113 17 -26 48 -47 70 -47 33 0 36 -7 20 -50 -10 -27 -12 -50 -3 -50 23 0 95
83 112 130 13 36 16 35 39 -20 28 -64 86 -123 104 -105 6 7 1 30 -11 53 -19
36 -17 42 18 42 65 0 116 93 74 135 -26 27 -38 28 -58 8 -20 -21 -18 -31 10
-52 49 -35 44 -51 -16 -51 -64 0 -84 50 -40 99 33 36 33 40 -6 64 -54 33 -20
77 59 77 163 0 208 -231 56 -284 -70 -24 -56 -61 21 -53 31 3 70 -6 87 -20 70
-58 125 -21 118 77 l-7 90 71 -83 c79 -91 134 -115 183 -79 40 30 31 99 -14
108 -24 4 -30 -6 -22 -45 15 -78 -87 -41 -135 50 -19 35 -17 37 28 20 27 -11
75 -12 106 -3 31 8 96 11 144 6 77 -8 86 -5 75 26 -8 19 -4 46 7 60 14 17 14
42 2 76 -31 80 -62 85 -62 10 -1 -37 -19 -88 -43 -116 l-42 -50 33 54 c17 30
32 85 32 123 0 65 3 67 75 65 96 -3 113 97 25 142 -79 40 -14 30 80 -12 78
-35 82 -40 45 -59 -49 -27 -75 -146 -45 -204 25 -46 101 -47 116 -1 7 20 -5
25 -43 18 -128 -25 -60 93 109 190 106 60 168 164 149 251 -10 44 0 66 51 114
34 32 75 86 90 119 14 33 27 45 27 28 1 -36 -68 -134 -124 -175 -29 -21 -32
-33 -14 -55 35 -41 58 -35 79 22 10 28 28 50 40 50 11 0 20 13 20 29 0 16 23
62 50 103 47 69 71 203 33 180 -28 -17 -60 269 -38 333 26 75 78 102 127 66
31 -23 33 -33 13 -54 -19 -19 -25 -19 -25 -1 0 13 -13 24 -30 24 -17 0 -30
-18 -30 -40 0 -59 96 -55 118 5 20 52 -6 115 -47 115 -34 0 -18 80 22 112 21
17 50 15 119 -10 110 -39 181 9 117 80 -21 22 -24 38 -10 47 88 55 -6 143
-107 100 -102 -42 -234 44 -145 95 88 49 54 198 -37 163 -39 -15 -39 -87 0
-87 17 0 30 11 30 24 0 19 5 19 24 0 35 -35 -9 -72 -69 -57 -76 19 -95 87 -72
256 11 81 28 150 39 154 27 10 21 87 -12 143 -16 28 -43 79 -60 115 -17 36
-39 65 -50 65 -11 0 -20 18 -20 40 0 43 -32 51 -79 21 -24 -15 -20 -26 23 -60
63 -49 137 -194 134 -262 -1 -34 -8 -24 -21 31 -20 89 -104 221 -150 239 -23
8 -27 29 -18 87 18 102 -45 191 -194 279 -130 76 -173 180 -62 153 39 -10 50
-7 43 14 -13 40 -85 46 -115 10 -37 -45 -8 -187 41 -203 57 -18 47 -37 -33
-62 -50 -15 -65 -15 -50 0 71 71 -10 181 -98 133 -36 -19 -41 -16 -41 24 1 34
5 39 18 18 10 -15 28 -21 40 -13 12 7 17 23 10 35 -7 11 -2 28 12 36 17 10 20
29 10 53 -9 20 -17 51 -18 67 -1 21 -20 28 -62 23 -74 -8 -72 -8 -118 -5 -37
2 -37 3 -1 43 29 32 32 49 16 75 -38 61 -87 50 -178 -42 l-89 -89 0 60 c0 89
-51 37 -70 -70 -8 -47 -19 -73 -24 -59 -22 57 16 166 65 188 27 12 49 30 49
39 0 24 -115 21 -130 -3 -7 -11 -43 -20 -80 -20 -37 0 -73 -9 -80 -20 -7 -11
1 -20 18 -20 16 0 54 -21 85 -47 101 -88 -19 -287 -146 -242 -61 21 -87 69
-39 69 38 0 41 27 8 79 -39 62 21 121 84 81 26 -16 25 -22 -8 -46 -40 -29 -29
-74 18 -74 79 0 51 137 -32 153 -48 10 -54 18 -37 48 33 62 24 83 -23 58 -23
-12 -55 -55 -72 -96 l-31 -73 -22 68 c-13 37 -45 82 -72 100 -46 30 -48 30
-35 -3z m-415 -97 l59 -62 -70 14 c-71 15 -99 39 -100 85 0 44 51 27 111 -37z
m1209 37 c-1 -46 -29 -70 -100 -85 l-70 -14 59 62 c60 64 111 81 111 37z
m-1212 -127 c18 -7 32 -25 32 -41 0 -16 41 -46 92 -68 l91 -39 -64 -54 c-62
-52 -65 -53 -91 -15 -30 44 -51 66 -99 106 -18 16 -28 45 -22 67 12 46 -25 39
-56 -11 -17 -29 -11 -43 29 -74 28 -22 61 -48 75 -60 73 -61 -33 -145 -128
-101 l-53 24 44 31 45 31 -42 29 c-117 83 6 229 147 175z m1271 -27 c33 -60
25 -116 -21 -148 l-42 -30 41 -26 c50 -31 22 -77 -48 -77 -122 0 -139 114 -24
158 58 22 72 77 31 118 -29 29 -63 32 -46 4 20 -33 -9 -97 -49 -110 -21 -6
-47 -40 -60 -74 l-21 -63 -60 57 c-77 73 -76 78 20 115 44 18 80 45 80 62 0
63 167 75 199 14z m-668 -143 c14 -24 12 -24 -17 -1 -28 23 -40 23 -65 2 -27
-23 -29 -20 -12 23 11 26 26 66 34 88 13 35 16 32 29 -22 7 -34 21 -74 31 -90z
m-819 -124 l102 -65 -118 -80 c-301 -201 -564 -642 -591 -989 -6 -71 -19 -142
-31 -156 -14 -18 -13 -33 3 -49 13 -13 23 -64 23 -114 0 -343 288 -836 614
-1053 72 -48 103 -79 85 -85 -16 -5 -67 -36 -113 -68 -51 -37 -97 -55 -116
-48 -38 15 -31 86 7 78 14 -3 48 12 75 33 l50 40 -46 29 c-53 35 -204 33 -240
-3 -57 -57 -196 20 -196 109 0 44 54 31 67 -16 9 -37 16 -40 42 -18 19 16 40
19 56 8 14 -10 66 -13 115 -8 l90 11 -49 35 c-28 19 -66 35 -85 35 -24 0 -36
15 -36 45 0 29 -22 57 -60 79 -35 20 -60 51 -60 74 0 22 -13 47 -29 56 -28 16
-31 22 -31 75 0 16 -17 39 -37 49 -40 22 -40 27 -13 -142 6 -41 26 -89 44
-107 31 -31 12 -67 -36 -69 -24 0 -58 105 -58 183 0 61 -7 79 -28 71 -22 -9
-24 5 -8 73 42 180 -20 393 -114 393 -35 0 -116 94 -93 108 11 7 34 7 51 0 35
-13 45 22 12 42 -12 7 -15 21 -9 31 14 23 70 26 67 4 -8 -50 5 -106 22 -95 28
17 25 97 -4 126 -30 30 -121 31 -150 2 -16 -16 -36 -13 -72 12 -49 31 -53 31
-93 -9 -25 -25 -42 -31 -43 -16 -1 20 -3 20 -11 0 -6 -14 -23 -25 -39 -25 -23
0 -25 9 -9 38 14 25 34 35 61 28 28 -7 40 -1 40 22 0 18 -16 32 -38 32 -20 0
-48 14 -62 30 -24 28 -19 36 15 25 8 -3 13 -12 10 -20 -3 -8 4 -15 15 -15 11
0 21 16 21 35 1 27 6 24 20 -10 21 -54 108 -62 135 -13 17 30 23 30 72 -2 43
-29 63 -31 103 -13 49 22 70 108 31 132 -23 14 -44 -41 -29 -79 7 -19 0 -30
-20 -30 -45 0 -57 32 -23 60 49 41 34 60 -35 46 l-65 -12 39 44 c21 24 62 54
90 68 102 48 150 242 102 411 -16 55 -14 65 10 55 23 -8 29 9 29 84 0 115 48
199 92 162 25 -20 24 -29 -6 -62 -32 -36 -72 -256 -46 -256 27 0 60 51 60 94
0 26 11 44 25 41 14 -3 28 19 31 51 5 38 23 62 56 75 28 11 59 45 71 79 13 36
35 60 57 60 70 0 92 60 22 63 -204 8 -212 7 -212 -23 0 -16 -16 -32 -35 -36
-69 -13 -18 119 60 154 41 19 60 17 102 -11 59 -39 177 -42 242 -7 l43 23 -51
40 c-28 22 -59 34 -69 28 -26 -16 -48 24 -34 60 16 43 51 35 164 -37z m744 42
c19 -19 29 -19 48 0 88 88 542 -60 798 -259 798 -623 678 -1893 -222 -2343
-227 -114 -475 -174 -551 -133 -38 20 -54 20 -77 0 -43 -35 -283 5 -452 76
-1114 468 -1168 2005 -90 2552 224 113 488 165 546 107z m954 -26 c0 -23 -12
-38 -26 -35 -53 11 -131 -70 -90 -92 53 -28 198 -35 229 -10 94 73 217 10 217
-112 0 -36 -43 -23 -54 16 -8 31 -26 37 -103 33 -51 -3 -114 -6 -140 -8 -60
-3 -25 -56 43 -66 29 -4 46 -23 51 -53 3 -26 32 -61 63 -79 34 -20 61 -56 68
-90 6 -31 21 -51 32 -44 11 7 20 -8 20 -36 0 -26 18 -64 40 -84 40 -36 40 -35
31 22 -5 32 -15 92 -21 132 -6 41 -27 83 -45 94 -29 16 -29 23 -5 52 43 52
100 -28 100 -142 0 -62 8 -88 28 -88 22 0 24 -16 8 -85 -37 -162 39 -424 120
-412 41 6 65 -7 85 -46 22 -39 19 -42 -29 -32 -63 12 -83 -11 -42 -45 34 -28
22 -60 -23 -60 -19 0 -26 12 -19 35 16 52 -21 106 -40 58 -38 -100 76 -171
157 -98 36 32 39 32 58 0 24 -43 114 -46 130 -4 9 24 18 25 40 6 16 -13 28
-15 26 -5 -7 36 1 50 22 37 30 -18 -16 -69 -63 -69 -22 0 -38 -14 -38 -32 0
-23 12 -29 40 -22 27 7 47 -3 61 -28 14 -26 14 -38 0 -38 -12 0 -22 16 -22 35
-1 32 -4 32 -23 3 -20 -29 -26 -28 -60 6 -36 36 -43 36 -86 8 -41 -27 -54 -28
-102 -3 -88 46 -199 -66 -133 -132 24 -24 55 50 35 83 -7 11 6 20 29 20 50 0
52 -15 6 -66 -34 -39 -33 -40 17 -27 29 7 58 6 65 -1 17 -16 -66 -106 -97
-106 -97 0 -151 -212 -106 -414 12 -52 9 -62 -15 -53 -23 9 -29 -8 -29 -82 0
-140 -35 -193 -100 -152 -25 16 -23 25 15 61 32 29 45 65 45 119 0 43 6 93 13
112 9 24 5 32 -15 25 -15 -5 -37 -36 -48 -68 -11 -32 -31 -65 -45 -74 -14 -9
-25 -36 -25 -60 0 -28 -22 -56 -60 -78 -36 -20 -60 -51 -60 -75 0 -27 -13 -41
-38 -41 -21 0 -58 -17 -84 -38 l-47 -37 96 -8 c53 -4 101 -1 106 8 5 8 28 5
50 -6 33 -18 42 -15 51 20 13 49 66 55 66 7 0 -88 -146 -161 -197 -99 -31 37
-219 26 -260 -15 -28 -28 -28 -32 -1 -32 16 0 41 -11 55 -25 14 -14 36 -25 49
-25 36 0 29 -78 -7 -85 -18 -4 -66 21 -108 54 -42 34 -84 61 -94 61 -35 0 -15
33 41 66 843 498 872 1820 53 2384 l-111 77 94 67 c103 73 156 78 156 16z
m-2041 -297 c42 -31 26 -73 -28 -73 -54 0 -97 58 -60 81 38 24 45 24 88 -8z
m2331 -11 c0 -26 -48 -62 -83 -62 -51 0 -68 42 -29 71 33 24 112 18 112 -9z
m249 -521 c-8 -67 -19 -118 -24 -113 -5 5 -3 65 5 132 8 67 18 118 23 113 5
-5 3 -64 -4 -132z m-2570 -1490 c34 -41 9 -71 -60 -71 -68 0 -72 12 -26 63 40
45 55 46 86 8z m2317 -36 c8 -40 -65 -57 -109 -25 -29 21 -31 31 -10 57 31 36
110 16 119 -32z m-1777 -324 c36 -43 9 -99 -59 -125 -63 -24 -79 -79 -36 -122
33 -33 57 -30 44 4 -15 38 26 112 61 112 15 0 36 27 48 60 26 74 33 74 102 1
l56 -60 -83 -31 c-46 -18 -92 -52 -103 -76 -24 -55 -97 -67 -160 -25 -56 36
-65 113 -19 151 40 33 38 80 -2 80 -27 0 -28 5 -8 30 32 38 128 39 159 1z
m1281 -1 c20 -25 19 -30 -8 -30 -40 0 -42 -47 -2 -80 65 -54 15 -180 -73 -180
-55 0 -117 36 -117 68 0 15 -39 42 -87 60 l-88 33 57 61 c54 58 98 63 98 11 0
-13 27 -48 60 -77 33 -29 60 -72 60 -97 0 -37 5 -40 30 -19 50 42 36 101 -30
126 -68 26 -95 82 -59 125 31 38 127 37 159 -1z m-749 -92 c7 -12 31 -17 51
-12 22 6 33 2 26 -9 -7 -11 -19 -44 -26 -72 -14 -52 -15 -51 -56 31 -36 73
-32 122 5 62z m445 -295 c25 -21 27 -25 4 -19 -43 13 -80 95 -77 176 1 62 4
58 20 -30 10 -55 34 -112 53 -127z"/>
<path d="M1930 178 c-33 -32 -71 -54 -85 -49 -39 15 -29 -25 11 -47 22 -12 48
-12 65 -1 21 13 32 6 40 -27 6 -24 23 -44 39 -44 16 0 33 20 39 44 8 33 19 40
40 27 17 -11 43 -11 65 1 41 22 50 62 11 47 -14 -5 -55 18 -91 51 -37 33 -68
59 -70 58 -2 -1 -31 -28 -64 -60z"/>
<path d="M2265 206 c-28 -11 -34 -78 -8 -94 10 -6 33 5 51 26 36 40 7 86 -43
68z"/>
</g>
</svg>
